<?xml version="1.0" encoding="utf-8"?>
<!-- Generator: Adobe Illustrator 19.0.0, SVG Export Plug-In . SVG Version: 6.00 Build 0)  -->
<svg version="1.1" id="Layer_1" xmlns="http://www.w3.org/2000/svg" xmlns:xlink="http://www.w3.org/1999/xlink" x="0px" y="0px"
	 viewBox="211 -105.4 1033.1 1003.4" style="enable-background:new 211 -105.4 1033.1 1003.4;" xml:space="preserve">
<style type="text/css">
	.st0{display:none;}
</style>
<g>
	<path class="st0" d="M199.2,908.1c0-341.5,0-683.2,0-1024.8c352,0,704,0,1056,0c0,341.5,0,683,0,1024.8
		C903.2,908.1,551.2,908.1,199.2,908.1z M727.6,802.3c70.9,101.2,203.2,122.1,298.5,62.7c45.5-28.3,77.6-68,93.8-119.1
		c23.3-73.3,10.7-141.2-33.9-203.5c121.2-34.4,185.3-167.3,146.9-281.1c-17.7-52.5-49.9-93.6-97.7-121.5
		c-58.8-34.4-121.1-39.5-186.3-18.5C949.1,59.1,928.8,5,885.2-39.3c-43.7-44.4-97.5-66.5-159.8-66.1c-51.4,0.3-97.6,16.8-137.3,49.6
		c-55.2,45.7-81.8,105.3-81.9,176.9c-122.1-42.8-240.7,28.3-278.8,126c-19.2,49.2-22.2,99.4-5.6,149.6
		C246,470.1,296.3,518,369.4,542.3c-79,103.7-49.7,247.1,49.1,316C515.1,925.6,654.9,907,727.6,802.3z"/>
	<path class="st0" d="M727.6,802.3C654.9,907,515,925.5,418.5,858.2c-98.9-68.9-128.2-212.3-49.1-316
		C296.3,518,246,470.1,221.8,396.7c-16.6-50.3-13.6-100.4,5.6-149.6c38.1-97.7,156.8-168.8,278.8-126
		c0.2-71.6,26.7-131.1,81.9-176.9c39.7-32.8,86-49.3,137.3-49.6c62.3-0.4,116,21.7,159.8,66.1c43.6,44.3,63.9,98.4,63.7,160.6
		c65.2-21.1,127.5-15.9,186.3,18.5c47.8,27.9,80,69,97.7,121.5c38.4,113.8-25.7,246.7-146.9,281.1c44.6,62.3,57.2,130.3,33.9,203.5
		c-16.2,51.2-48.3,90.8-93.8,119.1C930.8,924.4,798.5,903.6,727.6,802.3z M808,278.3c-0.1,0.3,0,0,0.1-0.3
		c14.6-57.8,47.1-102.7,97-135.2c1.9-1.2,3.6-4,3.9-6.2c1.9-17.6,1.6-35.1-1.6-52.6c-7.8-43.1-28.2-79.3-61.6-107.4
		C802-60,751.5-73.5,695.2-63.8C652-56.3,616-35.5,588.1-1.9c-36.7,44.1-50.4,95.3-39.6,151.6s42.6,98.4,92.6,126.6
		c4.6,2.6,8.5,3.1,13.1,0.1c2.9-1.9,6.3-3,9.5-4.3c33-13.6,67.1-16.8,101.8-8.4C779.8,267.3,793.5,273.3,808,278.3z M892.3,456.3
		c1.2,0,2.5-0.1,3.8,0c16.1,0.7,32.4,0.1,48.2,2.5c40.2,6,76,22.4,107.3,48.4c1.5,1.3,4.4,2.2,6.2,1.7c8-1.8,16.1-3.8,23.9-6.4
		c33.8-11.3,61.6-31.2,83.8-59c23.8-29.8,36.7-63.8,39.4-101.6c1.2-16.6-0.1-33.1-3.7-49.5c-12.2-54.9-43-96.1-92.1-122.9
		c-38.1-20.8-79-26.8-121.8-18.2c-45.3,9.1-82,32.3-110.1,68.7c-18.6,24.2-29.9,51.7-34.7,81.8c-0.3,1.6,0.7,3.8,1.8,5.1
		c4.9,5.9,10.4,11.2,15.1,17.3c22.6,29.3,34.3,62.5,34.7,99.5C894.2,434.4,893,445.2,892.3,456.3z M749.3,591.6
		c0.8,2.1,1.5,4.1,2.2,6.1c8.6,22.1,13.5,45,14.5,68.6c1.4,32-3.6,63.1-15.7,92.9c-0.8,1.9-0.4,4.9,0.6,6.7
		c12.4,22.9,29.1,42.1,50.1,57.3c42.3,30.7,89.4,42.2,141,33.1c44.4-7.8,81.2-29.4,109.4-64.2c34.6-42.8,47.3-92.2,38.3-146.4
		c-7-41.7-26.6-77.1-58.7-105.1c-42.6-37.2-92.2-51.4-148-44.3c-3.2,0.4-5.4,1.6-7.2,5c-22,42.3-55.9,70.4-101.5,84.3
		C766.3,588,757.8,589.6,749.3,591.6z M576.6,497.7c-0.6,0.5-1.4,1-2.1,1.7c-17.2,14.3-36,25.9-56.7,34.4
		c-23,9.5-46.8,15.6-71.7,16.5c-9,0.3-17.9-0.1-26.9,0.1c-2.4,0.1-5.4,0.5-7.1,1.9c-3.5,3.1-6.3,6.8-9.2,10.5
		c-37.5,48-48.6,101.8-34,160.7c9.2,37,29.2,67.6,58.2,92.4c30.9,26.4,66.9,40.4,107.2,43.3c16.6,1.2,33.2-0.2,49.5-3.9
		c42-9.4,76.7-30.7,103.7-64.2c25.6-31.9,38.9-68.5,40-109.5c0.8-28.3-5-55.2-16.4-81.1c-3.1-7-7.3-10-14.8-11.4
		c-42.7-7.9-76.8-29.9-102.8-64.5C587.3,516.2,582.3,506.8,576.6,497.7z M612.5,305.5c-12-9.5-24.5-18.2-35.5-28.4
		c-31.7-29.3-52.6-65.4-63.7-107.1c-0.6-2.1-2.5-4.7-4.5-5.6c-36.2-16.6-73.9-21.2-113-13.1c-40.8,8.5-75.5,28.4-102.1,60.4
		c-37.8,45.5-51.8,98-39.4,156.3c11.7,55.3,43.3,96.4,92.9,123.2c35,18.9,72.7,25.1,112.2,19.2c39.8-5.9,74-23.3,102.4-51.8
		c1.1-1.1,1.7-3.5,1.4-5.1c-4.3-27.9-2.2-55.2,7.1-82C579.1,345.9,593.4,323.9,612.5,305.5z M727.5,553.8
		c71.3,0,127.8-58.1,128.1-127.6c0.3-70.2-57.5-128.3-127.9-128.3c-70-0.1-128,57.5-128.1,127.6
		C599.5,495.1,655.9,553.7,727.5,553.8z"/>
	<path d="M808,278.3c-14.4-5-28.2-10.9-42.5-14.4c-34.7-8.5-68.7-5.3-101.8,8.4c-3.2,1.3-6.6,2.4-9.5,4.3c-4.6,3-8.5,2.5-13.1-0.1
		c-50-28.3-81.8-70.3-92.6-126.6s2.9-107.5,39.6-151.6C616-35.5,652-56.3,695.2-63.8C751.5-73.5,802-60,845.7-23.4
		c33.5,28,53.8,64.2,61.6,107.4c3.2,17.5,3.5,35,1.6,52.6c-0.2,2.2-2,5-3.9,6.2c-50,32.4-82.4,77.4-97,135.2
		C808,278.3,807.8,278.6,808,278.3z"/>
	<path d="M892.3,456.3c0.6-11.1,1.8-21.9,1.7-32.6c-0.4-37-12.1-70.2-34.7-99.5c-4.7-6-10.2-11.4-15.1-17.3
		c-1.1-1.3-2.1-3.5-1.8-5.1c4.8-30.1,16.1-57.7,34.7-81.8c28.1-36.5,64.7-59.7,110.1-68.7c42.8-8.6,83.7-2.6,121.8,18.2
		c49.1,26.9,79.9,68.1,92.1,122.9c3.7,16.4,4.9,32.9,3.7,49.5c-2.7,37.8-15.6,71.8-39.4,101.6c-22.2,27.8-50,47.7-83.8,59
		c-7.8,2.6-15.9,4.6-23.9,6.4c-1.9,0.4-4.7-0.4-6.2-1.7c-31.3-26-67.1-42.5-107.3-48.4c-15.9-2.4-32.1-1.7-48.2-2.5
		C894.8,456.2,893.5,456.3,892.3,456.3z"/>
	<path d="M749.3,591.6c8.5-2,17-3.5,25.2-6c45.6-13.8,79.5-42,101.5-84.3c1.7-3.3,4-4.6,7.2-5c55.9-7.1,105.5,7.1,148,44.3
		c32,28,51.7,63.4,58.7,105.1c9,54.2-3.7,103.6-38.3,146.4c-28.2,34.9-65,56.5-109.4,64.2c-51.7,9-98.7-2.5-141-33.1
		c-21-15.2-37.7-34.4-50.1-57.3c-1-1.9-1.4-4.9-0.6-6.7c12-29.8,17.1-60.9,15.7-92.9c-1.1-23.6-5.9-46.5-14.5-68.6
		C750.8,595.7,750.1,593.7,749.3,591.6z"/>
	<path d="M576.6,497.7c5.7,9.1,10.7,18.5,17,26.9c26,34.6,60.1,56.6,102.8,64.5c7.5,1.4,11.7,4.4,14.8,11.4
		c11.4,25.9,17.1,52.8,16.4,81.1c-1.1,41-14.4,77.6-40,109.5c-26.9,33.5-61.7,54.8-103.7,64.2c-16.3,3.7-32.9,5.1-49.5,3.9
		c-40.3-2.8-76.3-16.9-107.2-43.3c-29-24.7-49-55.4-58.2-92.4c-14.6-58.8-3.5-112.7,34-160.7c2.9-3.7,5.7-7.4,9.2-10.5
		c1.7-1.5,4.7-1.9,7.1-1.9c9-0.2,17.9,0.2,26.9-0.1c24.9-0.9,48.7-7,71.7-16.5c20.7-8.5,39.5-20.2,56.7-34.4
		C575.2,498.7,576,498.2,576.6,497.7z"/>
	<path d="M612.5,305.5c-19,18.4-33.4,40.4-42.2,66c-9.2,26.7-11.3,54-7.1,82c0.2,1.6-0.3,4-1.4,5.1c-28.4,28.5-62.6,45.9-102.4,51.8
		c-39.5,5.9-77.1-0.2-112.2-19.2c-49.6-26.8-81.2-68-93-123.2c-12.4-58.3,1.5-110.8,39.4-156.3c26.6-32,61.2-51.9,102.1-60.4
		c39.1-8.1,76.8-3.5,113,13.1c2,0.9,3.9,3.4,4.5,5.6c11.1,41.7,32,77.8,63.7,107.1C588,287.3,600.4,296,612.5,305.5z"/>
	<path d="M727.5,553.8c-71.6-0.1-128-58.8-127.9-128.3c0.1-70.1,58.1-127.7,128.1-127.6c70.4,0.1,128.1,58.2,127.9,128.3
		C855.4,495.7,798.8,553.9,727.5,553.8z"/>
</g>
</svg>
